<svg xmlns="http://www.w3.org/2000/svg" viewBox="0 0 252.45 116.3"><defs><style>.cls-1,.cls-3{fill:#f2b705;}.cls-2{fill:#e94e1b;}.cls-3{stroke:#e94e1b;stroke-miterlimit:10;}</style></defs><g id="Layer_2" data-name="Layer 2"><g id="Layer_1-2" data-name="Layer 1"><path class="cls-1" d="M250.12,46.06A31,31,0,0,0,244,35.32a28.91,28.91,0,0,0-10.71-7.56A40.71,40.71,0,0,0,217.45,25c-.48,0-1.41,0-2.8.06l-4.22.13c-1.43,0-2.54.06-3.34.06q-4.76,0-7.14-1.41a6.14,6.14,0,0,1-3-3.38,2.38,2.38,0,0,0-2,.92A5.17,5.17,0,0,0,194,25a16.58,16.58,0,0,0,1.25,6.27,11.76,11.76,0,0,0,3.75,5,10.32,10.32,0,0,0,6.43,1.9q1.55,0,3.81-.06c1.5,0,3-.06,4.52-.06h3.69q9.65,0,14.4,5.1t4.76,15.29c0,4.58-.67,7.82-2,9.7a6.75,6.75,0,0,1-5.83,2.82H179.24V38.63q0-5.9-5.89-9.76T158.06,25q-12.74,0-20.29,7.74t-7.56,21.61a35.24,35.24,0,0,0,3.33,16,24.32,24.32,0,0,0,9.05,10.13A23.61,23.61,0,0,0,155.2,84h8.57a40.31,40.31,0,0,1-1,9.89,18.73,18.73,0,0,1-2.8,6.33,22.34,22.34,0,0,1-4.28,4.42,6.51,6.51,0,0,0,1,3,9.4,9.4,0,0,0,3,3.13,8.78,8.78,0,0,0,5,1.35,9.75,9.75,0,0,0,6.54-2.34,16.87,16.87,0,0,0,4.46-6.32,40.28,40.28,0,0,0,2.62-9A59.3,59.3,0,0,0,179.24,84h49.52a25.84,25.84,0,0,0,11.06-2.51,20.46,20.46,0,0,0,8.81-8.17q3.45-5.65,3.45-14.86A39.21,39.21,0,0,0,250.12,46.06ZM156.74,70.89a11.58,11.58,0,0,1-2.2-.16,9.21,9.21,0,0,1-6.07-4.16q-2.79-4.35-2.79-12.22,0-8.72,3.1-12.52T158.06,38a28.85,28.85,0,0,1,3.33.18,16.64,16.64,0,0,1,2.38.43V58.51c0,2.77-.05,5.54-.09,8.29,0,2.27-.15,4.53-1.81,6.28C160.36,71.29,159.09,70.92,156.74,70.89Z" transform="translate(-0.33)"/><path class="cls-2" d="M249.41,46.29a29.75,29.75,0,0,0-8.6-12.77,30,30,0,0,0-13.89-6.42,44.72,44.72,0,0,0-7.76-.72c-2.6,0-5.25.17-7.93.28l-4,.15a25,25,0,0,1-4.28-.26,14,14,0,0,1-2.21-.56,9.49,9.49,0,0,1-2.16-1.08A7.41,7.41,0,0,1,195.37,21v0l1.41,1.19s0,0-.07,0a1.74,1.74,0,0,0-.42.33,1.86,1.86,0,0,0-.45,1,11.7,11.7,0,0,0,0,3.63,15.55,15.55,0,0,0,1.05,3.65,10.28,10.28,0,0,0,2,3A10.4,10.4,0,0,0,200.24,35a7.14,7.14,0,0,0,1.5.79,10.21,10.21,0,0,0,3.55.6l8.49-.13,4.28,0a30.94,30.94,0,0,1,4.48.4,19.07,19.07,0,0,1,8.54,3.51,16.78,16.78,0,0,1,5.46,7.54,28.38,28.38,0,0,1,1.63,8.84,31.63,31.63,0,0,1-.73,8.92,13.13,13.13,0,0,1-.84,2.28,8.58,8.58,0,0,1-1.46,2.13,8,8,0,0,1-4.56,2.42,8.72,8.72,0,0,1-1.24.14l-.62,0h-2.65l-4.25,0-8.51,0-34-.11h-1.46l0-1.37.24-19.76.12-9.88,0-2.47a10.51,10.51,0,0,0-.19-2.26,9.43,9.43,0,0,0-1.9-4,17.61,17.61,0,0,0-7.72-5.19A30.8,30.8,0,0,0,159,25.67a34.27,34.27,0,0,0-9.63.95,24.57,24.57,0,0,0-8.7,4.13A23.79,23.79,0,0,0,134.23,38,27.93,27.93,0,0,0,131,47.18a44.65,44.65,0,0,0-.51,9.8,36.59,36.59,0,0,0,1.75,9.64,27.58,27.58,0,0,0,4.68,8.56,22.85,22.85,0,0,0,7.58,6.08,23.27,23.27,0,0,0,9.41,2.43c3.27.07,6.58,0,9.87,0H164V84a37.48,37.48,0,0,1-1.46,11.48,17.23,17.23,0,0,1-2.63,5.2,22.52,22.52,0,0,1-4.08,4.14l.09-.18a6,6,0,0,0,.87,2.69,8.16,8.16,0,0,0,1.79,2.26,9.15,9.15,0,0,0,2.4,1.6,8.62,8.62,0,0,0,2.8.66,10.14,10.14,0,0,0,5.63-1.07,12.71,12.71,0,0,0,4.21-4,23,23,0,0,0,2.61-5.26,41.28,41.28,0,0,0,1.6-5.68A58,58,0,0,0,179,84.08V83.7h.25l25.28-.07c8.43,0,16.88.05,25.28,0a25,25,0,0,0,6.12-1,19.18,19.18,0,0,0,5.62-2.59,25.63,25.63,0,0,0,4.44-4.2,21,21,0,0,0,3.21-5.18,30.93,30.93,0,0,0,2.18-12.07A37.46,37.46,0,0,0,249.41,46.29Zm1.41-.46a40.94,40.94,0,0,1,2,12.67,32,32,0,0,1-2.24,12.65,22.83,22.83,0,0,1-3.46,5.51,16.85,16.85,0,0,1-5,4.12,32,32,0,0,1-5.94,2.46,25.45,25.45,0,0,1-6.31,1h-25.3l-25.28-.07.25-.25v.13a58.33,58.33,0,0,1-1.18,11.86,42.3,42.3,0,0,1-1.62,5.75,23.17,23.17,0,0,1-2.68,5.36,13,13,0,0,1-4.38,4.1,10.66,10.66,0,0,1-5.89,1.13,9.1,9.1,0,0,1-2.95-.71,9.87,9.87,0,0,1-2.53-1.68,8.68,8.68,0,0,1-1.88-2.38,6.65,6.65,0,0,1-.93-2.92v-.11l.09-.07a22.28,22.28,0,0,0,4-4.06,16.65,16.65,0,0,0,2.56-5.06A36.66,36.66,0,0,0,163.54,84l.23.22c-3.3,0-6.58,0-9.9,0a23.71,23.71,0,0,1-9.58-2.48,23.32,23.32,0,0,1-7.71-6.2,27.9,27.9,0,0,1-4.75-8.69A37.23,37.23,0,0,1,130.07,57a44.26,44.26,0,0,1,.53-9.89,29.68,29.68,0,0,1,3.11-9.42,24.36,24.36,0,0,1,6.42-7.61,25.62,25.62,0,0,1,8.93-4.51A35.51,35.51,0,0,1,159,24.35,32.22,32.22,0,0,1,169,25.87,21.74,21.74,0,0,1,173.59,28a16.49,16.49,0,0,1,4,3.37,11.29,11.29,0,0,1,2.39,4.76,13.35,13.35,0,0,1,.28,2.66l0,2.47.12,9.88.24,19.76-1.37-1.38h.06l34-.11,8.51,0,4.25,0h3.11a8.08,8.08,0,0,0,.86-.1,4.92,4.92,0,0,0,2.81-1.51,5.31,5.31,0,0,0,.92-1.37,9.57,9.57,0,0,0,.61-1.71,28.69,28.69,0,0,0,.57-8,24.66,24.66,0,0,0-1.48-7.81,13.11,13.11,0,0,0-4.41-6A15.73,15.73,0,0,0,222,40.1a27.63,27.63,0,0,0-4-.32h-4.22l-8.52.1a13.41,13.41,0,0,1-4.78-.85,10,10,0,0,1-2.25-1.2,12.64,12.64,0,0,1-1.86-1.62,13.75,13.75,0,0,1-2.63-4.06,18.26,18.26,0,0,1-1.27-4.51,14.32,14.32,0,0,1,0-4.84,6.33,6.33,0,0,1,.45-1.38,4.51,4.51,0,0,1,1-1.35,5,5,0,0,1,1.28-.93,3.41,3.41,0,0,1,2-.36l1,.14.36,1.05v0a4.34,4.34,0,0,0,1.81,2.15,7.51,7.51,0,0,0,3.07,1.19,21.22,21.22,0,0,0,3.71.35l4,0c2.66,0,5.36-.12,8.1,0a48.19,48.19,0,0,1,8.17,1,32.55,32.55,0,0,1,14.68,7.34A31.3,31.3,0,0,1,250.82,45.83Z" transform="translate(-0.33)"/><path class="cls-2" d="M156.74,71.64c-.55,0-1.11.06-1.7,0a11.56,11.56,0,0,1-1.78-.25,10.48,10.48,0,0,1-3.37-1.38,11.12,11.12,0,0,1-2.73-2.53,13.9,13.9,0,0,1-1.69-3.18,20.74,20.74,0,0,1-1.37-6.78,52.07,52.07,0,0,1,.13-6.73,21.52,21.52,0,0,1,1.56-6.72A11.79,11.79,0,0,1,147.71,41a10.6,10.6,0,0,1,2.84-2.28,12.69,12.69,0,0,1,6.75-1.46,26.3,26.3,0,0,1,6.51,1.15h0l.15,0v.16l0,17.43v8.72a34.18,34.18,0,0,1-.12,4.4,11.48,11.48,0,0,1-.51,2.2c-.26.73-.7,1.34-1,2.17v0l-.32,1-.73-1a4.43,4.43,0,0,0-2-1.62A6.58,6.58,0,0,0,156.74,71.64Zm0-1.49a10.43,10.43,0,0,1,3.09.57,7.61,7.61,0,0,1,2.56,1.91l-1.05,0h0a2.47,2.47,0,0,0,1.34-1.49,6.47,6.47,0,0,0,.52-2c.14-1.41.12-2.87.18-4.32.08-2.91.12-5.81.12-8.72l0-17.43.15.2h0l-1.6-.13-.79-.07-.8,0c-1.06.07-2.12,0-3.15.13a12.19,12.19,0,0,0-5.59,1.93c-3.17,2.22-4.05,6.3-4.38,10.37a32.55,32.55,0,0,0,1.31,12.06,16,16,0,0,0,1.18,2.59A8.44,8.44,0,0,0,151.5,68a7.58,7.58,0,0,0,2.34,1.57A8.43,8.43,0,0,0,156.75,70.15Z" transform="translate(-0.33)"/><path class="cls-1" d="M145.14,77.08q0,3.69-2.14,5.1a8.11,8.11,0,0,1-4.52,1.41H89.09a23.35,23.35,0,0,1-12-3.07,22.08,22.08,0,0,1-8.33-8.47,24.34,24.34,0,0,1-3-12.16V20.59q0-4.43-1.07-6.39a5.7,5.7,0,0,0-2.38-2.58c-.87-.41-1.55-.73-2-1a8,8,0,0,1,.89-2.95,9.54,9.54,0,0,1,3-3.56,9.13,9.13,0,0,1,5.66-1.6,9.8,9.8,0,0,1,6,1.91,12.62,12.62,0,0,1,4,5.22,25.89,25.89,0,0,1,1.42,7.61V59.89a15.58,15.58,0,0,0,.84,5A9.23,9.23,0,0,0,84.69,69a6.35,6.35,0,0,0,4.4,1.59h14A28.46,28.46,0,0,1,101,66.09a32.6,32.6,0,0,1-1.91-11.48,31.25,31.25,0,0,1,2.86-14.06,27.22,27.22,0,0,1,7.2-9.21,30.51,30.51,0,0,1,8.75-5.1,28.18,28.18,0,0,1,7.54-1.34,22.1,22.1,0,0,1,5,.29,29.09,29.09,0,0,1,6.6,2,15.8,15.8,0,0,1,5.77,4.24,10.4,10.4,0,0,1,2.38,7.06q0,4.66-2.67,6.88a8.93,8.93,0,0,1-5.78,2.21,14.89,14.89,0,0,1-4-.62c-1.47-.4-2.64-.77-3.51-1.1a11.16,11.16,0,0,0-1.49-6.26c-1-1.47-2.5-3.13-4.38-3.39s-3.83,1.92-4.84,3.27c-3,4.13-3.93,9.59-3.93,14.61s1.07,9.19,3.21,12.09,5.24,4.36,9.28,4.36h11.43A8.12,8.12,0,0,1,143,72Q145.15,73.4,145.14,77.08Z" transform="translate(-0.33)"/><path class="cls-2" d="M146.57,77.08a9.94,9.94,0,0,1-.33,2.66,6.08,6.08,0,0,1-1.41,2.56,5.59,5.59,0,0,1-1.18,1,10.68,10.68,0,0,1-1.17.59,10.21,10.21,0,0,1-2.55.73,9.77,9.77,0,0,1-1.32.1h-50a26,26,0,0,1-4.81-.53,23.35,23.35,0,0,1-8.85-3.84,23.71,23.71,0,0,1-9.69-16.11A30.54,30.54,0,0,1,65,59.42l0-4.65.08-9.3c0-6.2.11-12.4.11-18.6V22.22a36.53,36.53,0,0,0-.14-4.58,12.75,12.75,0,0,0-.43-2.18,5.42,5.42,0,0,0-.41-1,8,8,0,0,0-.57-.93,4.28,4.28,0,0,0-1.5-1.41,3.55,3.55,0,0,0-2.41-.42h0l-.6.13,0-1.21a7.4,7.4,0,0,1,.26-2.07,17,17,0,0,1,.55-1.75A10.89,10.89,0,0,1,62,3.47,9.38,9.38,0,0,1,65.28,1,12,12,0,0,1,69.21.06a11.72,11.72,0,0,1,7.87,2A14.52,14.52,0,0,1,81.9,8.35a21.41,21.41,0,0,1,1.34,7.25c0,.58,0,1.19,0,1.82l-.1,1.66-.22,3.32c-.16,2.21-.26,4.42-.33,6.64l-.26,6.63c-.14,4.42-.22,8.84-.4,13.26l-.23,6.63-.1,3.32a16.1,16.1,0,0,0,.09,3.26,11.45,11.45,0,0,0,2.41,5.93A6.37,6.37,0,0,0,86.66,70a8.1,8.1,0,0,0,3.19.44c4.42,0,8.84,0,13.26-.08l-.21.37a30.51,30.51,0,0,1-4.23-13,38.6,38.6,0,0,1,1-13.81,28,28,0,0,1,2.78-6.49,28.43,28.43,0,0,1,4.28-5.7,35,35,0,0,1,5.56-4.46,26.47,26.47,0,0,1,6.55-3.16,34.08,34.08,0,0,1,7.15-1.22,30.86,30.86,0,0,1,3.73.06,19.63,19.63,0,0,1,3.68.6,33.08,33.08,0,0,1,3.51,1.08,19.82,19.82,0,0,1,3.47,1.6,16.1,16.1,0,0,1,3.12,2.4c.47.47.9.93,1.34,1.46a11.87,11.87,0,0,1,1.18,1.8,13.74,13.74,0,0,1,1.35,8,11.84,11.84,0,0,1-1.09,4,8.85,8.85,0,0,1-2.81,3.31,11.52,11.52,0,0,1-3.62,1.77,10.16,10.16,0,0,1-4,.28,23.7,23.7,0,0,1-6.83-2.3l-.1-.05-.64-.3,0-.6a14.52,14.52,0,0,0-.4-4.62,6.81,6.81,0,0,0-1-2.09,7.18,7.18,0,0,0-1.57-1.77,3.91,3.91,0,0,0-2.09-.92,3.23,3.23,0,0,0-2.11.76,12.46,12.46,0,0,0-3.1,3.66,22.19,22.19,0,0,0-2.75,9.23,31.54,31.54,0,0,0,.53,9.66,13.17,13.17,0,0,0,4.65,7.87,9.62,9.62,0,0,0,4.14,1.69,13.31,13.31,0,0,0,2.28.16l2.46,0,4.94-.09,2.47,0,1.24,0h.63l.72,0a9.42,9.42,0,0,1,2.78.67,8.28,8.28,0,0,1,2.53,1.55,6.18,6.18,0,0,1,1.58,2.7A10.5,10.5,0,0,1,146.57,77.08Zm-2.86,0a5,5,0,0,0-1-3.61A5.73,5.73,0,0,0,141,72.41a6.55,6.55,0,0,0-2-.54l-.51,0h-.61l-1.24,0-2.47,0-4.94-.09-2.49-.06a14.65,14.65,0,0,1-2.62-.32,11.43,11.43,0,0,1-4.83-2.23,14.83,14.83,0,0,1-4.87-9,34,34,0,0,1-.15-10,23.33,23.33,0,0,1,3.08-9.49,13.18,13.18,0,0,1,3.35-3.75,4,4,0,0,1,2.47-.83,5.17,5.17,0,0,1,2.41.94,11.17,11.17,0,0,1,1.91,1.72A9,9,0,0,1,129,40.81a13.13,13.13,0,0,1,1.14,5.08l-.62-.9.11,0c2.21.35,4.37,1,6.36,1a7.17,7.17,0,0,0,5.05-2,6.07,6.07,0,0,0,1.82-4.61,9.88,9.88,0,0,0-1.16-5.26,6.54,6.54,0,0,0-.74-1,11.73,11.73,0,0,0-1-1,15.94,15.94,0,0,0-2.26-1.76,25.32,25.32,0,0,0-5.61-2.46c-1-.31-2-.51-3-.74a17.93,17.93,0,0,0-3.08-.29,30.73,30.73,0,0,0-6.32.65,28.38,28.38,0,0,0-11.18,6.1,25.68,25.68,0,0,0-4.22,4.93,24.84,24.84,0,0,0-3,5.84,36.65,36.65,0,0,0-1.67,13.17,28.58,28.58,0,0,0,3.6,12.85l.22.38h-.43c-4.42-.06-8.84-.11-13.26-.08a8.63,8.63,0,0,1-3.33-.42,6.75,6.75,0,0,1-2.75-2,12.45,12.45,0,0,1-2.64-6.13,20.08,20.08,0,0,1-.27-3.35l-.1-3.31-.23-6.63c-.19-4.42-.26-8.83-.41-13.25l-.25-6.62c-.07-2.21-.17-4.41-.33-6.62l-.22-3.31-.11-1.65A14.09,14.09,0,0,0,79,16c-.16-1-.38-2.05-.63-3a11.87,11.87,0,0,0-.93-2.61,10.21,10.21,0,0,0-3.39-4A8.56,8.56,0,0,0,69.38,5a11.2,11.2,0,0,0-2.58.21,5.5,5.5,0,0,0-2.23,1,7.3,7.3,0,0,0-1.9,1.9,9.33,9.33,0,0,0-1.16,2.46l-.65-1.08,0,0a3.25,3.25,0,0,0,1.76,1.62,5.5,5.5,0,0,1,1.88,1.73,9.38,9.38,0,0,1,.64,1,6.77,6.77,0,0,1,.48,1.16,12.4,12.4,0,0,1,.48,2.38,37.19,37.19,0,0,1,.17,4.7v4.65c0,6.2.06,12.4.11,18.6l.08,9.3.05,4.65a28.18,28.18,0,0,0,.34,4.51,22.18,22.18,0,0,0,9.19,14.75,21.43,21.43,0,0,0,8.13,3.39,24.36,24.36,0,0,0,4.43.43h50a6.52,6.52,0,0,0,1-.11,6.14,6.14,0,0,0,1.87-.7,7.57,7.57,0,0,0,.84-.55,2.8,2.8,0,0,0,.57-.57A6,6,0,0,0,143.71,77.08Z" transform="translate(-0.33)"/><path class="cls-1" d="M38.74,108.38a45.13,45.13,0,0,1-19.4-3.87A28.84,28.84,0,0,1,6.67,93.34Q2.2,86,2.2,75.71a44.28,44.28,0,0,1,.9-8.84,33.5,33.5,0,0,1,2.67-8.1,17.14,17.14,0,0,1,4.47-5.9,9.68,9.68,0,0,1,6.36-2.21A9,9,0,0,1,21.72,52a9.74,9.74,0,0,1,3,3.07,6.28,6.28,0,0,1,1,3.07,28.78,28.78,0,0,0-4.23,4,14.93,14.93,0,0,0-2.85,5.65,34.88,34.88,0,0,0-1,9.4q0,8.84,5.41,13.51T39,95.36q9,0,12.79-4.11T55.52,76.7V28.8a10.5,10.5,0,0,1,1.67-5.71q1.66-2.64,6.07-2.64c2.93,0,5,.88,6.07,2.64A10.5,10.5,0,0,1,71,28.8V76.7q0,14.49-7.62,23.09T38.74,108.38Z" transform="translate(-0.33)"/><path class="cls-2" d="M38.74,108.5a55.34,55.34,0,0,1-12.49-1.26,36.29,36.29,0,0,1-11.7-4.75A30.05,30.05,0,0,1,.89,81.28a43.38,43.38,0,0,1-.14-13A31.74,31.74,0,0,1,5,55.66,19.73,19.73,0,0,1,7.18,52.9a17.36,17.36,0,0,1,2.75-2.39,11.81,11.81,0,0,1,3.46-1.63,11.23,11.23,0,0,1,3.71-.38,11.44,11.44,0,0,1,3.7.77,8.65,8.65,0,0,1,1.75.93A13,13,0,0,1,24,51.38a10.56,10.56,0,0,1,2.24,3,6.29,6.29,0,0,1,.66,3.75v0l-.13.73-.3.14a17.54,17.54,0,0,0-3.34,2.1A12.57,12.57,0,0,0,20.37,64,17.92,17.92,0,0,0,18,71.54c-.16,1.32-.24,2.66-.27,4a26.57,26.57,0,0,0,.12,4A17.25,17.25,0,0,0,20.28,87,14.78,14.78,0,0,0,26,92.25a22.24,22.24,0,0,0,7.49,2.24,39.08,39.08,0,0,0,7.87.18,18.42,18.42,0,0,0,7.39-2,9.24,9.24,0,0,0,2.8-2.38A12.22,12.22,0,0,0,53.26,87a26.93,26.93,0,0,0,1.22-7.62c.08-2.59,0-5.29-.07-8l-.13-8-.21-16-.09-8v-10a15.61,15.61,0,0,1,.1-2.21,12.18,12.18,0,0,1,1.45-4.33,7.32,7.32,0,0,1,1.54-2,7.21,7.21,0,0,1,2.2-1.31,11.64,11.64,0,0,1,4.56-.64,9.74,9.74,0,0,1,4.55,1.24,6.4,6.4,0,0,1,1.88,1.75,11,11,0,0,1,.61,1c.17.33.33.67.47,1a11.29,11.29,0,0,1,.82,4.39c-.05,1.43-.16,2.7-.24,4.05-.37,5.34-.69,10.68-.75,16s0,10.68-.07,16l0,8c0,2.67.06,5.34-.15,8a35,35,0,0,1-4.48,15.25,25.14,25.14,0,0,1-5.07,6.18,23.92,23.92,0,0,1-6.88,4.07A43.49,43.49,0,0,1,38.74,108.5Zm0-.23a43.53,43.53,0,0,0,15.69-2.51,24,24,0,0,0,6.86-4,25.4,25.4,0,0,0,5.07-6.14,29.89,29.89,0,0,0,3.13-7.33,41.19,41.19,0,0,0,1.32-7.88c.2-2.66.1-5.33.11-8l0-8c0-5.33,0-10.67-.07-16s-.38-10.68-.75-16l-.26-4a9.74,9.74,0,0,0-1-3.36c-.14-.26-.28-.51-.43-.76a7.52,7.52,0,0,0-.47-.67,3.87,3.87,0,0,0-1.09-.88A6.83,6.83,0,0,0,63.7,22a9,9,0,0,0-3.32.44,3.73,3.73,0,0,0-1.23.72,4,4,0,0,0-.89,1.17,8.8,8.8,0,0,0-1.09,3.21,37.83,37.83,0,0,0-.09,3.79l0,8-.09,8-.2,16-.14,8c-.06,2.68,0,5.32-.21,8.06a29.18,29.18,0,0,1-1.56,8.1,13.44,13.44,0,0,1-2.07,3.71A10.59,10.59,0,0,1,49.46,94a19.59,19.59,0,0,1-8,2,39.88,39.88,0,0,1-8.1-.43,23.1,23.1,0,0,1-7.7-2.57,14.89,14.89,0,0,1-5.75-5.66,18.39,18.39,0,0,1-2.19-7.7,49.81,49.81,0,0,1,.24-8,21.86,21.86,0,0,1,2.25-7.65,20,20,0,0,1,2.25-3.4c.83-1.08,1.72-2.13,2.65-3.2l-.43.87v0A10.53,10.53,0,0,0,23.4,56a7.19,7.19,0,0,0-1.81-1.75,10.24,10.24,0,0,0-1.11-.67,7.54,7.54,0,0,0-1.06-.42,9.16,9.16,0,0,0-2.46-.3A8.68,8.68,0,0,0,12.23,54a9.22,9.22,0,0,0-2,1.73A15.6,15.6,0,0,0,8.69,58,30.05,30.05,0,0,0,6.33,63.2a38.44,38.44,0,0,0-1.51,5.72,44.63,44.63,0,0,0-.64,11.94,31.07,31.07,0,0,0,3.2,11.47,25.41,25.41,0,0,0,7.87,9.13,33.73,33.73,0,0,0,11.14,5.24A48.46,48.46,0,0,0,38.74,108.27Z" transform="translate(-0.33)"/><circle class="cls-3" cx="206.89" cy="105.26" r="10.54"/><circle class="cls-3" cx="36.27" cy="30.16" r="10.54"/></g></g></svg>